G04 #@! TF.FileFunction,Soldermask,Bot*
%FSLAX46Y46*%
G04 Gerber Fmt 4.6, Leading zero omitted, Abs format (unit mm)*
G04 Created by KiCad (PCBNEW 4.0.7) date 04/02/18 18:29:08*
%MOMM*%
%LPD*%
G01*
G04 APERTURE LIST*
%ADD10C,0.100000*%
%ADD11R,2.000000X2.000000*%
%ADD12O,2.000000X2.000000*%
%ADD13O,2.200000X8.400000*%
%ADD14C,3.250000*%
%ADD15C,0.254000*%
G04 APERTURE END LIST*
D10*
D11*
X138740000Y-104140000D03*
D12*
X146360000Y-121920000D03*
X138740000Y-106680000D03*
X146360000Y-119380000D03*
X138740000Y-109220000D03*
X146360000Y-116840000D03*
X138740000Y-111760000D03*
X146360000Y-114300000D03*
X138740000Y-114300000D03*
X146360000Y-111760000D03*
X138740000Y-116840000D03*
X146360000Y-109220000D03*
X138740000Y-119380000D03*
X146360000Y-106680000D03*
X138740000Y-121920000D03*
X146360000Y-104140000D03*
D13*
X120920000Y-138430000D03*
X123460000Y-138430000D03*
X126000000Y-138430000D03*
X128540000Y-138430000D03*
X131080000Y-138430000D03*
X133620000Y-138430000D03*
X136160000Y-138430000D03*
X138700000Y-138430000D03*
X141240000Y-138430000D03*
X143780000Y-138430000D03*
X146320000Y-138430000D03*
X148860000Y-138430000D03*
X151400000Y-138430000D03*
X153940000Y-138430000D03*
X156480000Y-138430000D03*
X159020000Y-138430000D03*
X161560000Y-138430000D03*
X164100000Y-138430000D03*
D14*
X123440000Y-126740000D03*
X143840000Y-126740000D03*
X126040000Y-130940000D03*
X146340000Y-130940000D03*
X128540000Y-126740000D03*
X148840000Y-126740000D03*
X131140000Y-130940000D03*
X151440000Y-130940000D03*
X133640000Y-126740000D03*
X153940000Y-126740000D03*
X136140000Y-130940000D03*
X156540000Y-130940000D03*
X138740000Y-126740000D03*
X159040000Y-126740000D03*
X141240000Y-130940000D03*
X161540000Y-130940000D03*
X164140000Y-126740000D03*
X120940000Y-130940000D03*
D15*
G36*
X165713000Y-143813000D02*
X118967000Y-143813000D01*
X118967000Y-134267000D01*
X165713000Y-134267000D01*
X165713000Y-143813000D01*
X165713000Y-143813000D01*
G37*
X165713000Y-143813000D02*
X118967000Y-143813000D01*
X118967000Y-134267000D01*
X165713000Y-134267000D01*
X165713000Y-143813000D01*
G36*
X148513000Y-122713000D02*
X147967000Y-122713000D01*
X147967000Y-102640000D01*
X147956994Y-102590590D01*
X147928553Y-102548965D01*
X147886159Y-102521685D01*
X147840000Y-102513000D01*
X137440000Y-102513000D01*
X137390590Y-102523006D01*
X137348965Y-102551447D01*
X137321685Y-102593841D01*
X137313000Y-102640000D01*
X137313000Y-122713000D01*
X136567000Y-122713000D01*
X136567000Y-101967000D01*
X148513000Y-101967000D01*
X148513000Y-122713000D01*
X148513000Y-122713000D01*
G37*
X148513000Y-122713000D02*
X147967000Y-122713000D01*
X147967000Y-102640000D01*
X147956994Y-102590590D01*
X147928553Y-102548965D01*
X147886159Y-102521685D01*
X147840000Y-102513000D01*
X137440000Y-102513000D01*
X137390590Y-102523006D01*
X137348965Y-102551447D01*
X137321685Y-102593841D01*
X137313000Y-102640000D01*
X137313000Y-122713000D01*
X136567000Y-122713000D01*
X136567000Y-101967000D01*
X148513000Y-101967000D01*
X148513000Y-122713000D01*
G36*
X144913000Y-122713000D02*
X144167000Y-122713000D01*
X144167000Y-104040000D01*
X144156994Y-103990590D01*
X144128553Y-103948965D01*
X144086159Y-103921685D01*
X144040000Y-103913000D01*
X141240000Y-103913000D01*
X141190590Y-103923006D01*
X141148965Y-103951447D01*
X141121685Y-103993841D01*
X141113000Y-104040000D01*
X141113000Y-122713000D01*
X140367000Y-122713000D01*
X140367000Y-103167000D01*
X144913000Y-103167000D01*
X144913000Y-122713000D01*
X144913000Y-122713000D01*
G37*
X144913000Y-122713000D02*
X144167000Y-122713000D01*
X144167000Y-104040000D01*
X144156994Y-103990590D01*
X144128553Y-103948965D01*
X144086159Y-103921685D01*
X144040000Y-103913000D01*
X141240000Y-103913000D01*
X141190590Y-103923006D01*
X141148965Y-103951447D01*
X141121685Y-103993841D01*
X141113000Y-104040000D01*
X141113000Y-122713000D01*
X140367000Y-122713000D01*
X140367000Y-103167000D01*
X144913000Y-103167000D01*
X144913000Y-122713000D01*
M02*
