G04 #@! TF.FileFunction,Copper,L1,Top,Signal*
%FSLAX46Y46*%
G04 Gerber Fmt 4.6, Leading zero omitted, Abs format (unit mm)*
G04 Created by KiCad (PCBNEW 4.0.7) date 04/02/18 18:29:08*
%MOMM*%
%LPD*%
G01*
G04 APERTURE LIST*
%ADD10C,0.100000*%
%ADD11R,1.600000X1.600000*%
%ADD12O,1.600000X1.600000*%
%ADD13O,1.800000X8.000000*%
%ADD14C,2.850000*%
%ADD15C,0.700000*%
G04 APERTURE END LIST*
D10*
D11*
X138740000Y-104140000D03*
D12*
X146360000Y-121920000D03*
X138740000Y-106680000D03*
X146360000Y-119380000D03*
X138740000Y-109220000D03*
X146360000Y-116840000D03*
X138740000Y-111760000D03*
X146360000Y-114300000D03*
X138740000Y-114300000D03*
X146360000Y-111760000D03*
X138740000Y-116840000D03*
X146360000Y-109220000D03*
X138740000Y-119380000D03*
X146360000Y-106680000D03*
X138740000Y-121920000D03*
X146360000Y-104140000D03*
D13*
X164100000Y-138430000D03*
X161560000Y-138430000D03*
X159020000Y-138430000D03*
X156480000Y-138430000D03*
X153940000Y-138430000D03*
X151400000Y-138430000D03*
X148860000Y-138430000D03*
X146320000Y-138430000D03*
X143780000Y-138430000D03*
X141240000Y-138430000D03*
X138700000Y-138430000D03*
X136160000Y-138430000D03*
X133620000Y-138430000D03*
X131080000Y-138430000D03*
X128540000Y-138430000D03*
X126000000Y-138430000D03*
X123460000Y-138430000D03*
X120920000Y-138430000D03*
D14*
X123440000Y-126740000D03*
X143840000Y-126740000D03*
X126040000Y-130940000D03*
X146340000Y-130940000D03*
X128540000Y-126740000D03*
X148840000Y-126740000D03*
X131140000Y-130940000D03*
X151440000Y-130940000D03*
X133640000Y-126740000D03*
X153940000Y-126740000D03*
X136140000Y-130940000D03*
X156540000Y-130940000D03*
X138740000Y-126740000D03*
X159040000Y-126740000D03*
X141240000Y-130940000D03*
X161540000Y-130940000D03*
X164140000Y-126740000D03*
X120940000Y-130940000D03*
D15*
X138740000Y-104140000D02*
X123540000Y-104140000D01*
X123440000Y-104240000D02*
X123440000Y-126740000D01*
X123540000Y-104140000D02*
X123440000Y-104240000D01*
X123460000Y-138430000D02*
X123460000Y-126760000D01*
X123460000Y-126760000D02*
X123440000Y-126740000D01*
X146360000Y-121920000D02*
X143860000Y-121920000D01*
X143840000Y-121940000D02*
X143840000Y-126740000D01*
X143860000Y-121920000D02*
X143840000Y-121940000D01*
X143780000Y-138430000D02*
X143780000Y-126800000D01*
X143780000Y-126800000D02*
X143840000Y-126740000D01*
X138740000Y-106680000D02*
X126080000Y-106680000D01*
X126040000Y-106720000D02*
X126040000Y-130940000D01*
X126080000Y-106680000D02*
X126040000Y-106720000D01*
X126000000Y-138430000D02*
X126000000Y-130980000D01*
X126000000Y-130980000D02*
X126040000Y-130940000D01*
X146360000Y-119380000D02*
X147800000Y-119380000D01*
X147800000Y-119380000D02*
X147800000Y-123180000D01*
X147800000Y-123180000D02*
X146340000Y-124640000D01*
X146340000Y-124640000D02*
X146340000Y-130940000D01*
X146320000Y-138430000D02*
X146320000Y-130960000D01*
X146320000Y-130960000D02*
X146340000Y-130940000D01*
X138740000Y-109220000D02*
X128560000Y-109220000D01*
X128540000Y-109240000D02*
X128540000Y-126740000D01*
X128560000Y-109220000D02*
X128540000Y-109240000D01*
X128540000Y-138430000D02*
X128540000Y-126740000D01*
X146360000Y-116840000D02*
X148840000Y-116840000D01*
X148840000Y-116840000D02*
X148840000Y-126740000D01*
X148860000Y-138430000D02*
X148860000Y-126760000D01*
X148860000Y-126760000D02*
X148840000Y-126740000D01*
X138740000Y-111760000D02*
X131160000Y-111760000D01*
X131140000Y-111780000D02*
X131140000Y-130940000D01*
X131160000Y-111760000D02*
X131140000Y-111780000D01*
X131080000Y-138430000D02*
X131080000Y-131000000D01*
X131080000Y-131000000D02*
X131140000Y-130940000D01*
X146360000Y-114300000D02*
X151280000Y-114300000D01*
X151440000Y-114460000D02*
X151440000Y-130940000D01*
X151280000Y-114300000D02*
X151440000Y-114460000D01*
X151400000Y-138430000D02*
X151400000Y-130980000D01*
X151400000Y-130980000D02*
X151440000Y-130940000D01*
X138740000Y-114300000D02*
X133680000Y-114300000D01*
X133640000Y-114340000D02*
X133640000Y-126740000D01*
X133680000Y-114300000D02*
X133640000Y-114340000D01*
X133620000Y-138430000D02*
X133620000Y-126760000D01*
X133620000Y-126760000D02*
X133640000Y-126740000D01*
X146360000Y-111760000D02*
X153720000Y-111760000D01*
X153940000Y-111980000D02*
X153940000Y-126740000D01*
X153720000Y-111760000D02*
X153940000Y-111980000D01*
X153940000Y-138430000D02*
X153940000Y-126740000D01*
X138740000Y-116840000D02*
X136140000Y-116840000D01*
X136140000Y-116840000D02*
X136140000Y-130940000D01*
X136160000Y-138430000D02*
X136160000Y-130960000D01*
X136160000Y-130960000D02*
X136140000Y-130940000D01*
X146360000Y-109220000D02*
X156420000Y-109220000D01*
X156540000Y-109340000D02*
X156540000Y-130940000D01*
X156420000Y-109220000D02*
X156540000Y-109340000D01*
X156480000Y-138430000D02*
X156480000Y-131000000D01*
X156480000Y-131000000D02*
X156540000Y-130940000D01*
X138740000Y-119380000D02*
X137280000Y-119380000D01*
X137280000Y-119380000D02*
X137280000Y-123380000D01*
X137280000Y-123380000D02*
X138740000Y-124840000D01*
X138740000Y-124840000D02*
X138740000Y-126740000D01*
X138700000Y-119380000D02*
X138740000Y-119380000D01*
X138700000Y-138430000D02*
X138700000Y-126780000D01*
X138700000Y-126780000D02*
X138740000Y-126740000D01*
X146360000Y-106680000D02*
X159000000Y-106680000D01*
X159040000Y-106720000D02*
X159040000Y-126740000D01*
X159000000Y-106680000D02*
X159040000Y-106720000D01*
X159020000Y-138430000D02*
X159020000Y-126760000D01*
X159020000Y-126760000D02*
X159040000Y-126740000D01*
X141240000Y-130940000D02*
X141240000Y-121940000D01*
X141220000Y-121920000D02*
X138740000Y-121920000D01*
X141240000Y-121940000D02*
X141220000Y-121920000D01*
X141240000Y-138430000D02*
X141240000Y-130940000D01*
X146360000Y-104140000D02*
X161540000Y-104140000D01*
X161540000Y-104140000D02*
X161540000Y-130940000D01*
X161560000Y-138430000D02*
X161560000Y-130960000D01*
X161560000Y-130960000D02*
X161540000Y-130940000D01*
X164100000Y-138430000D02*
X164100000Y-126780000D01*
X164100000Y-126780000D02*
X164140000Y-126740000D01*
X120920000Y-138430000D02*
X120920000Y-130960000D01*
X120920000Y-130960000D02*
X120940000Y-130940000D01*
M02*
