G04 #@! TF.FileFunction,Legend,Top*
%FSLAX46Y46*%
G04 Gerber Fmt 4.6, Leading zero omitted, Abs format (unit mm)*
G04 Created by KiCad (PCBNEW 4.0.7) date 04/02/18 18:29:08*
%MOMM*%
%LPD*%
G01*
G04 APERTURE LIST*
%ADD10C,0.100000*%
%ADD11C,0.300000*%
%ADD12C,0.120000*%
%ADD13C,0.150000*%
%ADD14C,0.254000*%
G04 APERTURE END LIST*
D10*
D11*
X117675714Y-120218571D02*
X118532857Y-120218571D01*
X118104286Y-121718571D02*
X118104286Y-120218571D01*
X119318571Y-120218571D02*
X119604285Y-120218571D01*
X119747143Y-120290000D01*
X119890000Y-120432857D01*
X119961428Y-120718571D01*
X119961428Y-121218571D01*
X119890000Y-121504286D01*
X119747143Y-121647143D01*
X119604285Y-121718571D01*
X119318571Y-121718571D01*
X119175714Y-121647143D01*
X119032857Y-121504286D01*
X118961428Y-121218571D01*
X118961428Y-120718571D01*
X119032857Y-120432857D01*
X119175714Y-120290000D01*
X119318571Y-120218571D01*
X120604286Y-121718571D02*
X120604286Y-120218571D01*
X121175714Y-120218571D01*
X121318572Y-120290000D01*
X121390000Y-120361429D01*
X121461429Y-120504286D01*
X121461429Y-120718571D01*
X121390000Y-120861429D01*
X121318572Y-120932857D01*
X121175714Y-121004286D01*
X120604286Y-121004286D01*
D12*
X143550000Y-102810000D02*
G75*
G02X141550000Y-102810000I-1000000J0D01*
G01*
X141550000Y-102810000D02*
X139900000Y-102810000D01*
X139900000Y-102810000D02*
X139900000Y-123250000D01*
X139900000Y-123250000D02*
X145200000Y-123250000D01*
X145200000Y-123250000D02*
X145200000Y-102810000D01*
X145200000Y-102810000D02*
X143550000Y-102810000D01*
D13*
X141563810Y-113492381D02*
X141563810Y-112492381D01*
X142611429Y-113397143D02*
X142563810Y-113444762D01*
X142420953Y-113492381D01*
X142325715Y-113492381D01*
X142182857Y-113444762D01*
X142087619Y-113349524D01*
X142040000Y-113254286D01*
X141992381Y-113063810D01*
X141992381Y-112920952D01*
X142040000Y-112730476D01*
X142087619Y-112635238D01*
X142182857Y-112540000D01*
X142325715Y-112492381D01*
X142420953Y-112492381D01*
X142563810Y-112540000D01*
X142611429Y-112587619D01*
X143563810Y-113492381D02*
X142992381Y-113492381D01*
X143278095Y-113492381D02*
X143278095Y-112492381D01*
X143182857Y-112635238D01*
X143087619Y-112730476D01*
X142992381Y-112778095D01*
X125636667Y-134572381D02*
X125636667Y-135286667D01*
X125589047Y-135429524D01*
X125493809Y-135524762D01*
X125350952Y-135572381D01*
X125255714Y-135572381D01*
X126065238Y-134667619D02*
X126112857Y-134620000D01*
X126208095Y-134572381D01*
X126446191Y-134572381D01*
X126541429Y-134620000D01*
X126589048Y-134667619D01*
X126636667Y-134762857D01*
X126636667Y-134858095D01*
X126589048Y-135000952D01*
X126017619Y-135572381D01*
X126636667Y-135572381D01*
D14*
G36*
X166713000Y-99813000D02*
X117967000Y-99813000D01*
X117967000Y-92067000D01*
X166713000Y-92067000D01*
X166713000Y-99813000D01*
X166713000Y-99813000D01*
G37*
X166713000Y-99813000D02*
X117967000Y-99813000D01*
X117967000Y-92067000D01*
X166713000Y-92067000D01*
X166713000Y-99813000D01*
M02*
