M48
;DRILL file {KiCad 4.0.7} date 04/02/18 18:29:11
;FORMAT={-:-/ absolute / inch / decimal}
FMAT,2
INCH,TZ
T1C0.031
T2C0.043
%
G90
G05
M72
T1
X5.4622Y-4.1
X5.4622Y-4.2
X5.4622Y-4.3
X5.4622Y-4.4
X5.4622Y-4.5
X5.4622Y-4.6
X5.4622Y-4.7
X5.4622Y-4.8
X5.7622Y-4.1
X5.7622Y-4.2
X5.7622Y-4.3
X5.7622Y-4.4
X5.7622Y-4.5
X5.7622Y-4.6
X5.7622Y-4.7
X5.7622Y-4.8
T2
X4.7614Y-5.1551
X4.8598Y-4.9898
X4.9622Y-5.1551
X5.0606Y-4.9898
X5.163Y-5.1551
X5.2614Y-4.9898
X5.3598Y-5.1551
X5.4622Y-4.9898
X5.5606Y-5.1551
X5.663Y-4.9898
X5.7614Y-5.1551
X5.8598Y-4.9898
X5.9622Y-5.1551
X6.0606Y-4.9898
X6.163Y-5.1551
X6.2614Y-4.9898
X6.3598Y-5.1551
X6.4622Y-4.9898
T0
M30
